<?xml version="1.0" encoding="UTF-8"?>
<svg xmlns="http://www.w3.org/2000/svg" xmlns:xlink="http://www.w3.org/1999/xlink" width="576pt" height="407pt" viewBox="0 0 576 407">
<defs>
<g>
<g id="glyph-0-0">
<path d="M 1.828125 -8.75 L 0.8125 -8.75 L 0.8125 0 L 1.828125 0 Z M 1.828125 -8.75 "/>
</g>
<g id="glyph-0-1">
<path d="M 3.265625 -6.46875 C 1.484375 -6.46875 0.4375 -5.203125 0.4375 -3.09375 C 0.4375 -0.96875 1.484375 0.28125 3.28125 0.28125 C 5.046875 0.28125 6.125 -0.984375 6.125 -3.046875 C 6.125 -5.234375 5.09375 -6.46875 3.265625 -6.46875 Z M 3.28125 -5.546875 C 4.40625 -5.546875 5.078125 -4.625 5.078125 -3.0625 C 5.078125 -1.578125 4.375 -0.640625 3.28125 -0.640625 C 2.15625 -0.640625 1.46875 -1.578125 1.46875 -3.09375 C 1.46875 -4.625 2.15625 -5.546875 3.28125 -5.546875 Z M 3.28125 -5.546875 "/>
</g>
<g id="glyph-0-2">
<path d="M 0.84375 -6.28125 L 0.84375 0 L 1.84375 0 L 1.84375 -3.46875 C 1.84375 -4.75 2.515625 -5.59375 3.546875 -5.59375 C 4.34375 -5.59375 4.84375 -5.109375 4.84375 -4.359375 L 4.84375 0 L 5.84375 0 L 5.84375 -4.75 C 5.84375 -5.796875 5.0625 -6.46875 3.859375 -6.46875 C 2.921875 -6.46875 2.3125 -6.109375 1.765625 -5.234375 L 1.765625 -6.28125 Z M 0.84375 -6.28125 "/>
</g>
<g id="glyph-0-3">
<path d="M 4.84375 -6.28125 L 4.84375 -5.375 C 4.34375 -6.125 3.796875 -6.46875 3 -6.46875 C 1.46875 -6.46875 0.421875 -5.046875 0.421875 -3.03125 C 0.421875 -1.984375 0.671875 -1.21875 1.21875 -0.578125 C 1.6875 -0.03125 2.28125 0.28125 2.921875 0.28125 C 3.6875 0.28125 4.21875 -0.0625 4.75 -0.859375 L 4.75 -0.53125 C 4.75 1.15625 4.28125 1.78125 3.03125 1.78125 C 2.1875 1.78125 1.734375 1.4375 1.640625 0.71875 L 0.625 0.71875 C 0.71875 1.890625 1.640625 2.609375 3.015625 2.609375 C 3.9375 2.609375 4.703125 2.3125 5.109375 1.8125 C 5.59375 1.21875 5.765625 0.4375 5.765625 -1.03125 L 5.765625 -6.28125 Z M 3.09375 -5.546875 C 4.15625 -5.546875 4.75 -4.65625 4.75 -3.0625 C 4.75 -1.53125 4.140625 -0.640625 3.09375 -0.640625 C 2.0625 -0.640625 1.46875 -1.546875 1.46875 -3.09375 C 1.46875 -4.625 2.0625 -5.546875 3.09375 -5.546875 Z M 3.09375 -5.546875 "/>
</g>
<g id="glyph-0-4">
<path d="M 3.40625 -3.75 L 0.546875 -3.75 L 0.546875 -2.875 L 3.40625 -2.875 Z M 3.40625 -3.75 "/>
</g>
<g id="glyph-0-5">
<path d="M 0.828125 -6.28125 L 0.828125 0 L 1.84375 0 L 1.84375 -3.265625 C 1.84375 -4.78125 2.46875 -5.453125 3.859375 -5.40625 L 3.859375 -6.4375 C 3.6875 -6.453125 3.59375 -6.46875 3.46875 -6.46875 C 2.8125 -6.46875 2.328125 -6.078125 1.75 -5.140625 L 1.75 -6.28125 Z M 0.828125 -6.28125 "/>
</g>
<g id="glyph-0-6">
<path d="M 5.78125 0 L 5.78125 -6.28125 L 4.78125 -6.28125 L 4.78125 -2.71875 C 4.78125 -1.4375 4.109375 -0.59375 3.078125 -0.59375 C 2.28125 -0.59375 1.78125 -1.078125 1.78125 -1.84375 L 1.78125 -6.28125 L 0.78125 -6.28125 L 0.78125 -1.4375 C 0.78125 -0.390625 1.5625 0.28125 2.78125 0.28125 C 3.703125 0.28125 4.296875 -0.046875 4.890625 -0.875 L 4.890625 0 Z M 5.78125 0 "/>
</g>
<g id="glyph-0-7">
</g>
<g id="glyph-0-8">
<path d="M 6.15625 -2.8125 C 6.15625 -3.765625 6.078125 -4.34375 5.90625 -4.8125 C 5.5 -5.84375 4.53125 -6.46875 3.359375 -6.46875 C 1.609375 -6.46875 0.484375 -5.140625 0.484375 -3.0625 C 0.484375 -0.984375 1.5625 0.28125 3.34375 0.28125 C 4.78125 0.28125 5.765625 -0.546875 6.03125 -1.90625 L 5.015625 -1.90625 C 4.734375 -1.078125 4.171875 -0.640625 3.375 -0.640625 C 2.734375 -0.640625 2.203125 -0.9375 1.859375 -1.46875 C 1.625 -1.828125 1.53125 -2.1875 1.53125 -2.8125 Z M 1.546875 -3.625 C 1.625 -4.78125 2.34375 -5.546875 3.34375 -5.546875 C 4.375 -5.546875 5.078125 -4.75 5.078125 -3.625 Z M 1.546875 -3.625 "/>
</g>
<g id="glyph-0-9">
<path d="M 6.421875 -0.59375 C 6.3125 -0.5625 6.265625 -0.5625 6.203125 -0.5625 C 5.859375 -0.5625 5.65625 -0.75 5.65625 -1.0625 L 5.65625 -4.75 C 5.65625 -5.875 4.84375 -6.46875 3.296875 -6.46875 C 2.375 -6.46875 1.640625 -6.203125 1.21875 -5.734375 C 0.921875 -5.40625 0.796875 -5.046875 0.78125 -4.421875 L 1.78125 -4.421875 C 1.875 -5.203125 2.328125 -5.546875 3.265625 -5.546875 C 4.171875 -5.546875 4.671875 -5.203125 4.671875 -4.609375 L 4.671875 -4.34375 C 4.65625 -3.90625 4.4375 -3.75 3.625 -3.640625 C 2.203125 -3.46875 1.984375 -3.421875 1.609375 -3.265625 C 0.875 -2.953125 0.5 -2.40625 0.5 -1.578125 C 0.5 -0.4375 1.296875 0.28125 2.5625 0.28125 C 3.359375 0.28125 4 0 4.703125 -0.640625 C 4.78125 0 5.09375 0.28125 5.734375 0.28125 C 5.953125 0.28125 6.078125 0.25 6.421875 0.171875 Z M 4.671875 -1.984375 C 4.671875 -1.640625 4.578125 -1.4375 4.265625 -1.15625 C 3.859375 -0.796875 3.375 -0.59375 2.78125 -0.59375 C 2 -0.59375 1.546875 -0.96875 1.546875 -1.609375 C 1.546875 -2.265625 1.984375 -2.609375 3.0625 -2.765625 C 4.125 -2.90625 4.328125 -2.953125 4.671875 -3.109375 Z M 4.671875 -1.984375 "/>
</g>
<g id="glyph-0-10">
<path d="M 3.046875 -6.28125 L 2.015625 -6.28125 L 2.015625 -8.015625 L 1.015625 -8.015625 L 1.015625 -6.28125 L 0.171875 -6.28125 L 0.171875 -5.46875 L 1.015625 -5.46875 L 1.015625 -0.71875 C 1.015625 -0.078125 1.453125 0.28125 2.234375 0.28125 C 2.5 0.28125 2.71875 0.25 3.046875 0.1875 L 3.046875 -0.640625 C 2.90625 -0.609375 2.765625 -0.59375 2.5625 -0.59375 C 2.140625 -0.59375 2.015625 -0.71875 2.015625 -1.15625 L 2.015625 -5.46875 L 3.046875 -5.46875 Z M 3.046875 -6.28125 "/>
</g>
<g id="glyph-0-11">
<path d="M 1.796875 -6.28125 L 0.796875 -6.28125 L 0.796875 0 L 1.796875 0 Z M 1.796875 -8.75 L 0.796875 -8.75 L 0.796875 -7.484375 L 1.796875 -7.484375 Z M 1.796875 -8.75 "/>
</g>
<g id="glyph-0-12">
<path d="M 3.421875 0 L 5.828125 -6.28125 L 4.703125 -6.28125 L 2.921875 -1.1875 L 1.25 -6.28125 L 0.125 -6.28125 L 2.328125 0 Z M 3.421875 0 "/>
</g>
<g id="glyph-0-13">
<path d="M 3.09375 -6.28125 L 2.046875 -6.28125 L 2.046875 -7.265625 C 2.046875 -7.6875 2.28125 -7.90625 2.75 -7.90625 C 2.828125 -7.90625 2.875 -7.90625 3.09375 -7.890625 L 3.09375 -8.71875 C 2.875 -8.765625 2.734375 -8.78125 2.53125 -8.78125 C 1.609375 -8.78125 1.0625 -8.25 1.0625 -7.359375 L 1.0625 -6.28125 L 0.21875 -6.28125 L 0.21875 -5.46875 L 1.0625 -5.46875 L 1.0625 0 L 2.046875 0 L 2.046875 -5.46875 L 3.09375 -5.46875 Z M 3.09375 -6.28125 "/>
</g>
<g id="glyph-0-14">
<path d="M 5.9375 2.609375 L 5.9375 -6.28125 L 5.046875 -6.28125 L 5.046875 -5.453125 C 4.578125 -6.109375 3.875 -6.46875 3.046875 -6.46875 C 1.390625 -6.46875 0.3125 -5.109375 0.3125 -3.03125 C 0.3125 -0.984375 1.328125 0.28125 3 0.28125 C 3.875 0.28125 4.46875 -0.03125 4.9375 -0.71875 L 4.9375 2.609375 Z M 3.1875 -5.53125 C 4.265625 -5.53125 4.9375 -4.578125 4.9375 -3.0625 C 4.9375 -1.625 4.25 -0.65625 3.1875 -0.65625 C 2.09375 -0.65625 1.359375 -1.625 1.359375 -3.09375 C 1.359375 -4.5625 2.09375 -5.53125 3.1875 -5.53125 Z M 3.1875 -5.53125 "/>
</g>
<g id="glyph-0-15">
<path d="M 5.65625 -4.171875 C 5.609375 -4.78125 5.46875 -5.1875 5.234375 -5.53125 C 4.796875 -6.125 4.046875 -6.46875 3.171875 -6.46875 C 1.46875 -6.46875 0.375 -5.125 0.375 -3.03125 C 0.375 -1.015625 1.453125 0.28125 3.15625 0.28125 C 4.65625 0.28125 5.609375 -0.625 5.71875 -2.15625 L 4.71875 -2.15625 C 4.546875 -1.15625 4.03125 -0.640625 3.1875 -0.640625 C 2.078125 -0.640625 1.421875 -1.546875 1.421875 -3.03125 C 1.421875 -4.609375 2.0625 -5.546875 3.15625 -5.546875 C 4 -5.546875 4.53125 -5.046875 4.640625 -4.171875 Z M 5.65625 -4.171875 "/>
</g>
<g id="glyph-0-16">
<path d="M 4.65625 -6.28125 L 2.921875 -1.390625 L 1.3125 -6.28125 L 0.234375 -6.28125 L 2.359375 0.03125 L 1.984375 1.015625 C 1.8125 1.46875 1.59375 1.625 1.171875 1.625 C 1.015625 1.625 0.859375 1.609375 0.640625 1.5625 L 0.640625 2.453125 C 0.859375 2.5625 1.0625 2.609375 1.3125 2.609375 C 1.640625 2.609375 1.984375 2.515625 2.25 2.3125 C 2.5625 2.09375 2.75 1.828125 2.9375 1.3125 L 5.734375 -6.28125 Z M 4.65625 -6.28125 "/>
</g>
<g id="glyph-0-17">
<path d="M 3.296875 -8.671875 C 2.515625 -8.671875 1.78125 -8.3125 1.34375 -7.734375 C 0.796875 -6.953125 0.515625 -5.8125 0.515625 -4.203125 C 0.515625 -1.265625 1.46875 0.28125 3.296875 0.28125 C 5.09375 0.28125 6.078125 -1.265625 6.078125 -4.125 C 6.078125 -5.8125 5.8125 -6.9375 5.25 -7.734375 C 4.8125 -8.328125 4.109375 -8.671875 3.296875 -8.671875 Z M 3.296875 -7.734375 C 4.4375 -7.734375 5 -6.578125 5 -4.21875 C 5 -1.75 4.453125 -0.59375 3.28125 -0.59375 C 2.15625 -0.59375 1.59375 -1.796875 1.59375 -4.1875 C 1.59375 -6.578125 2.15625 -7.734375 3.296875 -7.734375 Z M 3.296875 -7.734375 "/>
</g>
<g id="glyph-0-18">
<path d="M 2.296875 -1.25 L 1.046875 -1.25 L 1.046875 0 L 2.296875 0 Z M 2.296875 -1.25 "/>
</g>
<g id="glyph-0-19">
<path d="M 6.078125 -1.046875 L 1.59375 -1.046875 C 1.703125 -1.765625 2.09375 -2.21875 3.125 -2.859375 L 4.328125 -3.53125 C 5.515625 -4.1875 6.125 -5.078125 6.125 -6.140625 C 6.125 -6.859375 5.84375 -7.53125 5.34375 -8 C 4.84375 -8.453125 4.21875 -8.671875 3.40625 -8.671875 C 2.328125 -8.671875 1.53125 -8.296875 1.0625 -7.546875 C 0.75 -7.09375 0.625 -6.546875 0.59375 -5.671875 L 1.65625 -5.671875 C 1.6875 -6.265625 1.765625 -6.609375 1.90625 -6.90625 C 2.1875 -7.421875 2.734375 -7.75 3.375 -7.75 C 4.328125 -7.75 5.046875 -7.0625 5.046875 -6.125 C 5.046875 -5.421875 4.65625 -4.828125 3.90625 -4.390625 L 2.796875 -3.75 C 1.015625 -2.71875 0.5 -1.90625 0.40625 -0.015625 L 6.078125 -0.015625 Z M 6.078125 -1.046875 "/>
</g>
<g id="glyph-0-20">
<path d="M 3.921875 -2.09375 L 3.921875 0 L 4.984375 0 L 4.984375 -2.09375 L 6.234375 -2.09375 L 6.234375 -3.046875 L 4.984375 -3.046875 L 4.984375 -8.671875 L 4.203125 -8.671875 L 0.34375 -3.21875 L 0.34375 -2.09375 Z M 3.921875 -3.046875 L 1.265625 -3.046875 L 3.921875 -6.875 Z M 3.921875 -3.046875 "/>
</g>
<g id="glyph-0-21">
<path d="M 5.96875 -6.421875 C 5.765625 -7.84375 4.859375 -8.671875 3.5625 -8.671875 C 2.625 -8.671875 1.78125 -8.21875 1.28125 -7.4375 C 0.75 -6.59375 0.515625 -5.53125 0.515625 -3.953125 C 0.515625 -2.5 0.71875 -1.578125 1.234375 -0.796875 C 1.6875 -0.09375 2.4375 0.28125 3.375 0.28125 C 4.984375 0.28125 6.15625 -0.9375 6.15625 -2.625 C 6.15625 -4.21875 5.078125 -5.359375 3.546875 -5.359375 C 2.71875 -5.359375 2.046875 -5.046875 1.59375 -4.40625 C 1.609375 -6.546875 2.28125 -7.734375 3.484375 -7.734375 C 4.234375 -7.734375 4.75 -7.265625 4.921875 -6.421875 Z M 3.421875 -4.421875 C 4.4375 -4.421875 5.078125 -3.703125 5.078125 -2.546875 C 5.078125 -1.453125 4.359375 -0.65625 3.390625 -0.65625 C 2.40625 -0.65625 1.65625 -1.484375 1.65625 -2.59375 C 1.65625 -3.671875 2.375 -4.421875 3.421875 -4.421875 Z M 3.421875 -4.421875 "/>
</g>
<g id="glyph-0-22">
<path d="M 4.6875 -4.578125 C 5.578125 -5.109375 5.859375 -5.546875 5.859375 -6.359375 C 5.859375 -7.734375 4.8125 -8.671875 3.296875 -8.671875 C 1.796875 -8.671875 0.75 -7.734375 0.75 -6.375 C 0.75 -5.546875 1.015625 -5.125 1.890625 -4.578125 C 0.921875 -4.078125 0.4375 -3.375 0.4375 -2.40625 C 0.4375 -0.828125 1.609375 0.28125 3.296875 0.28125 C 4.984375 0.28125 6.15625 -0.828125 6.15625 -2.40625 C 6.15625 -3.375 5.671875 -4.078125 4.6875 -4.578125 Z M 3.296875 -7.734375 C 4.203125 -7.734375 4.78125 -7.203125 4.78125 -6.34375 C 4.78125 -5.515625 4.1875 -4.984375 3.296875 -4.984375 C 2.40625 -4.984375 1.828125 -5.515625 1.828125 -6.359375 C 1.828125 -7.203125 2.40625 -7.734375 3.296875 -7.734375 Z M 3.296875 -4.09375 C 4.359375 -4.09375 5.078125 -3.390625 5.078125 -2.390625 C 5.078125 -1.34375 4.375 -0.65625 3.28125 -0.65625 C 2.25 -0.65625 1.53125 -1.375 1.53125 -2.375 C 1.53125 -3.40625 2.234375 -4.09375 3.296875 -4.09375 Z M 3.296875 -4.09375 "/>
</g>
<g id="glyph-0-23">
<path d="M 3.109375 -6.1875 L 3.109375 0 L 4.15625 0 L 4.15625 -8.671875 L 3.46875 -8.671875 C 3.09375 -7.34375 2.859375 -7.15625 1.21875 -6.953125 L 1.21875 -6.1875 Z M 3.109375 -6.1875 "/>
</g>
<g id="glyph-0-24">
<path d="M 5.25 -4.53125 C 5.25 -5.765625 4.421875 -6.46875 2.96875 -6.46875 C 1.515625 -6.46875 0.5625 -5.71875 0.5625 -4.546875 C 0.5625 -3.5625 1.0625 -3.09375 2.5625 -2.734375 L 3.484375 -2.515625 C 4.1875 -2.34375 4.46875 -2.09375 4.46875 -1.640625 C 4.46875 -1.046875 3.875 -0.640625 3 -0.640625 C 2.453125 -0.640625 2 -0.796875 1.75 -1.0625 C 1.59375 -1.25 1.53125 -1.421875 1.46875 -1.875 L 0.40625 -1.875 C 0.453125 -0.421875 1.265625 0.28125 2.921875 0.28125 C 4.5 0.28125 5.515625 -0.5 5.515625 -1.71875 C 5.515625 -2.65625 4.984375 -3.171875 3.734375 -3.46875 L 2.765625 -3.703125 C 1.953125 -3.890625 1.609375 -4.15625 1.609375 -4.59375 C 1.609375 -5.1875 2.125 -5.546875 2.9375 -5.546875 C 3.75 -5.546875 4.171875 -5.203125 4.203125 -4.53125 Z M 5.25 -4.53125 "/>
</g>
<g id="glyph-0-25">
<path d="M 5.9375 -8.75 L 4.9375 -8.75 L 4.9375 -5.5 C 4.53125 -6.125 3.859375 -6.46875 3.015625 -6.46875 C 1.375 -6.46875 0.3125 -5.15625 0.3125 -3.15625 C 0.3125 -1.03125 1.34375 0.28125 3.046875 0.28125 C 3.90625 0.28125 4.515625 -0.046875 5.046875 -0.828125 L 5.046875 0 L 5.9375 0 Z M 3.1875 -5.53125 C 4.265625 -5.53125 4.9375 -4.578125 4.9375 -3.078125 C 4.9375 -1.625 4.25 -0.65625 3.1875 -0.65625 C 2.09375 -0.65625 1.359375 -1.625 1.359375 -3.09375 C 1.359375 -4.5625 2.09375 -5.53125 3.1875 -5.53125 Z M 3.1875 -5.53125 "/>
</g>
<g id="glyph-0-26">
<path d="M 6.40625 -4.234375 L 0.59375 -4.234375 L 0.59375 -3.390625 L 6.40625 -3.390625 Z M 6.40625 -2.171875 L 0.59375 -2.171875 L 0.59375 -1.328125 L 6.40625 -1.328125 Z M 6.40625 -2.171875 "/>
</g>
<g id="glyph-0-27">
<path d="M 0.953125 0 L 4.890625 0 C 5.71875 0 6.34375 -0.234375 6.796875 -0.734375 C 7.234375 -1.1875 7.46875 -1.8125 7.46875 -2.5 C 7.46875 -3.546875 7 -4.1875 5.875 -4.625 C 6.6875 -4.984375 7.09375 -5.625 7.09375 -6.53125 C 7.09375 -7.171875 6.859375 -7.734375 6.390625 -8.140625 C 5.921875 -8.5625 5.34375 -8.75 4.5 -8.75 L 0.953125 -8.75 Z M 2.0625 -4.984375 L 2.0625 -7.765625 L 4.21875 -7.765625 C 4.84375 -7.765625 5.203125 -7.6875 5.5 -7.453125 C 5.8125 -7.21875 5.96875 -6.859375 5.96875 -6.375 C 5.96875 -5.890625 5.8125 -5.53125 5.5 -5.296875 C 5.203125 -5.0625 4.84375 -4.984375 4.21875 -4.984375 Z M 2.0625 -0.984375 L 2.0625 -4 L 4.78125 -4 C 5.765625 -4 6.359375 -3.4375 6.359375 -2.484375 C 6.359375 -1.546875 5.765625 -0.984375 4.78125 -0.984375 Z M 2.0625 -0.984375 "/>
</g>
<g id="glyph-0-28">
<path d="M 1.203125 -8.75 L 1.203125 2.546875 L 1.921875 2.546875 L 1.921875 -8.75 Z M 1.203125 -8.75 "/>
</g>
<g id="glyph-0-29">
<path d="M 0.640625 2.609375 L 1.65625 2.609375 L 1.65625 -0.65625 C 2.1875 -0.015625 2.765625 0.28125 3.59375 0.28125 C 5.21875 0.28125 6.28125 -1.03125 6.28125 -3.03125 C 6.28125 -5.140625 5.25 -6.46875 3.578125 -6.46875 C 2.71875 -6.46875 2.046875 -6.078125 1.578125 -5.34375 L 1.578125 -6.28125 L 0.640625 -6.28125 Z M 3.40625 -5.53125 C 4.515625 -5.53125 5.234375 -4.5625 5.234375 -3.0625 C 5.234375 -1.625 4.5 -0.65625 3.40625 -0.65625 C 2.34375 -0.65625 1.65625 -1.625 1.65625 -3.09375 C 1.65625 -4.578125 2.34375 -5.53125 3.40625 -5.53125 Z M 3.40625 -5.53125 "/>
</g>
<g id="glyph-0-30">
<path d="M 5.6875 -2.625 L 6.59375 0 L 7.84375 0 L 4.765625 -8.75 L 3.328125 -8.75 L 0.203125 0 L 1.390625 0 L 2.3125 -2.625 Z M 5.375 -3.5625 L 2.59375 -3.5625 L 4.03125 -7.546875 Z M 5.375 -3.5625 "/>
</g>
<g id="glyph-0-31">
<path d="M 1.0625 0 L 4.4375 0 C 6.640625 0 8 -1.65625 8 -4.375 C 8 -7.09375 6.65625 -8.75 4.4375 -8.75 L 1.0625 -8.75 Z M 2.1875 -0.984375 L 2.1875 -7.765625 L 4.25 -7.765625 C 5.96875 -7.765625 6.890625 -6.59375 6.890625 -4.375 C 6.890625 -2.140625 5.96875 -0.984375 4.25 -0.984375 Z M 2.1875 -0.984375 "/>
</g>
<g id="glyph-0-32">
<path d="M 0.84375 -6.28125 L 0.84375 0 L 1.84375 0 L 1.84375 -3.953125 C 1.84375 -4.859375 2.515625 -5.59375 3.328125 -5.59375 C 4.0625 -5.59375 4.484375 -5.140625 4.484375 -4.328125 L 4.484375 0 L 5.5 0 L 5.5 -3.953125 C 5.5 -4.859375 6.15625 -5.59375 6.96875 -5.59375 C 7.703125 -5.59375 8.140625 -5.125 8.140625 -4.328125 L 8.140625 0 L 9.140625 0 L 9.140625 -4.71875 C 9.140625 -5.84375 8.5 -6.46875 7.3125 -6.46875 C 6.484375 -6.46875 5.96875 -6.21875 5.390625 -5.515625 C 5.015625 -6.1875 4.515625 -6.46875 3.703125 -6.46875 C 2.859375 -6.46875 2.296875 -6.15625 1.765625 -5.40625 L 1.765625 -6.28125 Z M 0.84375 -6.28125 "/>
</g>
<g id="glyph-0-33">
<path d="M 4.25 -7.765625 L 7.109375 -7.765625 L 7.109375 -8.75 L 0.25 -8.75 L 0.25 -7.765625 L 3.125 -7.765625 L 3.125 0 L 4.25 0 Z M 4.25 -7.765625 "/>
</g>
<g id="glyph-1-0">
<path d="M 2.609375 -0.640625 L 2.609375 -1.65625 L -0.65625 -1.65625 C -0.015625 -2.1875 0.28125 -2.765625 0.28125 -3.59375 C 0.28125 -5.21875 -1.03125 -6.28125 -3.03125 -6.28125 C -5.140625 -6.28125 -6.46875 -5.25 -6.46875 -3.578125 C -6.46875 -2.71875 -6.078125 -2.046875 -5.34375 -1.578125 L -6.28125 -1.578125 L -6.28125 -0.640625 Z M -5.53125 -3.40625 C -5.53125 -4.515625 -4.5625 -5.234375 -3.0625 -5.234375 C -1.625 -5.234375 -0.65625 -4.5 -0.65625 -3.40625 C -0.65625 -2.34375 -1.625 -1.65625 -3.09375 -1.65625 C -4.578125 -1.65625 -5.53125 -2.34375 -5.53125 -3.40625 Z M -5.53125 -3.40625 "/>
</g>
<g id="glyph-1-1">
<path d="M -6.28125 -0.828125 L 0 -0.828125 L 0 -1.84375 L -3.265625 -1.84375 C -4.78125 -1.84375 -5.453125 -2.46875 -5.40625 -3.859375 L -6.4375 -3.859375 C -6.453125 -3.6875 -6.46875 -3.59375 -6.46875 -3.46875 C -6.46875 -2.8125 -6.078125 -2.328125 -5.140625 -1.75 L -6.28125 -1.75 Z M -6.28125 -0.828125 "/>
</g>
<g id="glyph-1-2">
<path d="M -6.46875 -3.265625 C -6.46875 -1.484375 -5.203125 -0.4375 -3.09375 -0.4375 C -0.96875 -0.4375 0.28125 -1.484375 0.28125 -3.28125 C 0.28125 -5.046875 -0.984375 -6.125 -3.046875 -6.125 C -5.234375 -6.125 -6.46875 -5.09375 -6.46875 -3.265625 Z M -5.546875 -3.28125 C -5.546875 -4.40625 -4.625 -5.078125 -3.0625 -5.078125 C -1.578125 -5.078125 -0.640625 -4.375 -0.640625 -3.28125 C -0.640625 -2.15625 -1.578125 -1.46875 -3.09375 -1.46875 C -4.625 -1.46875 -5.546875 -2.15625 -5.546875 -3.28125 Z M -5.546875 -3.28125 "/>
</g>
<g id="glyph-1-3">
<path d="M -8.75 -0.640625 L 0 -0.640625 L 0 -1.546875 L -0.796875 -1.546875 C -0.078125 -2.03125 0.28125 -2.65625 0.28125 -3.546875 C 0.28125 -5.203125 -1.078125 -6.28125 -3.171875 -6.28125 C -5.203125 -6.28125 -6.46875 -5.25 -6.46875 -3.59375 C -6.46875 -2.71875 -6.140625 -2.109375 -5.4375 -1.640625 L -8.75 -1.640625 Z M -5.53125 -3.390625 C -5.53125 -4.515625 -4.5625 -5.234375 -3.0625 -5.234375 C -1.625 -5.234375 -0.65625 -4.484375 -0.65625 -3.390625 C -0.65625 -2.328125 -1.625 -1.640625 -3.09375 -1.640625 C -4.578125 -1.640625 -5.53125 -2.328125 -5.53125 -3.390625 Z M -5.53125 -3.390625 "/>
</g>
<g id="glyph-1-4">
<path d="M -0.59375 -6.421875 C -0.5625 -6.3125 -0.5625 -6.265625 -0.5625 -6.203125 C -0.5625 -5.859375 -0.75 -5.65625 -1.0625 -5.65625 L -4.75 -5.65625 C -5.875 -5.65625 -6.46875 -4.84375 -6.46875 -3.296875 C -6.46875 -2.375 -6.203125 -1.640625 -5.734375 -1.21875 C -5.40625 -0.921875 -5.046875 -0.796875 -4.421875 -0.78125 L -4.421875 -1.78125 C -5.203125 -1.875 -5.546875 -2.328125 -5.546875 -3.265625 C -5.546875 -4.171875 -5.203125 -4.671875 -4.609375 -4.671875 L -4.34375 -4.671875 C -3.90625 -4.65625 -3.75 -4.4375 -3.640625 -3.625 C -3.46875 -2.203125 -3.421875 -1.984375 -3.265625 -1.609375 C -2.953125 -0.875 -2.40625 -0.5 -1.578125 -0.5 C -0.4375 -0.5 0.28125 -1.296875 0.28125 -2.5625 C 0.28125 -3.359375 0 -4 -0.640625 -4.703125 C 0 -4.78125 0.28125 -5.09375 0.28125 -5.734375 C 0.28125 -5.953125 0.25 -6.078125 0.171875 -6.421875 Z M -1.984375 -4.671875 C -1.640625 -4.671875 -1.4375 -4.578125 -1.15625 -4.265625 C -0.796875 -3.859375 -0.59375 -3.375 -0.59375 -2.78125 C -0.59375 -2 -0.96875 -1.546875 -1.609375 -1.546875 C -2.265625 -1.546875 -2.609375 -1.984375 -2.765625 -3.0625 C -2.90625 -4.125 -2.953125 -4.328125 -3.109375 -4.671875 Z M -1.984375 -4.671875 "/>
</g>
<g id="glyph-1-5">
<path d="M -6.28125 -1.796875 L -6.28125 -0.796875 L 0 -0.796875 L 0 -1.796875 Z M -8.75 -1.796875 L -8.75 -0.796875 L -7.484375 -0.796875 L -7.484375 -1.796875 Z M -8.75 -1.796875 "/>
</g>
<g id="glyph-1-6">
<path d="M -8.75 -1.828125 L -8.75 -0.8125 L 0 -0.8125 L 0 -1.828125 Z M -8.75 -1.828125 "/>
</g>
<g id="glyph-1-7">
<path d="M -6.28125 -3.046875 L -6.28125 -2.015625 L -8.015625 -2.015625 L -8.015625 -1.015625 L -6.28125 -1.015625 L -6.28125 -0.171875 L -5.46875 -0.171875 L -5.46875 -1.015625 L -0.71875 -1.015625 C -0.078125 -1.015625 0.28125 -1.453125 0.28125 -2.234375 C 0.28125 -2.5 0.25 -2.71875 0.1875 -3.046875 L -0.640625 -3.046875 C -0.609375 -2.90625 -0.59375 -2.765625 -0.59375 -2.5625 C -0.59375 -2.140625 -0.71875 -2.015625 -1.15625 -2.015625 L -5.46875 -2.015625 L -5.46875 -3.046875 Z M -6.28125 -3.046875 "/>
</g>
<g id="glyph-1-8">
<path d="M -6.28125 -4.65625 L -1.390625 -2.921875 L -6.28125 -1.3125 L -6.28125 -0.234375 L 0.03125 -2.359375 L 1.015625 -1.984375 C 1.46875 -1.8125 1.625 -1.59375 1.625 -1.171875 C 1.625 -1.015625 1.609375 -0.859375 1.5625 -0.640625 L 2.453125 -0.640625 C 2.5625 -0.859375 2.609375 -1.0625 2.609375 -1.3125 C 2.609375 -1.640625 2.515625 -1.984375 2.3125 -2.25 C 2.09375 -2.5625 1.828125 -2.75 1.3125 -2.9375 L -6.28125 -5.734375 Z M -6.28125 -4.65625 "/>
</g>
<g id="glyph-1-9">
</g>
<g id="glyph-1-10">
<path d="M -8.75 -5.9375 L -8.75 -4.9375 L -5.5 -4.9375 C -6.125 -4.53125 -6.46875 -3.859375 -6.46875 -3.015625 C -6.46875 -1.375 -5.15625 -0.3125 -3.15625 -0.3125 C -1.03125 -0.3125 0.28125 -1.34375 0.28125 -3.046875 C 0.28125 -3.90625 -0.046875 -4.515625 -0.828125 -5.046875 L 0 -5.046875 L 0 -5.9375 Z M -5.53125 -3.1875 C -5.53125 -4.265625 -4.578125 -4.9375 -3.078125 -4.9375 C -1.625 -4.9375 -0.65625 -4.25 -0.65625 -3.1875 C -0.65625 -2.09375 -1.625 -1.359375 -3.09375 -1.359375 C -4.5625 -1.359375 -5.53125 -2.09375 -5.53125 -3.1875 Z M -5.53125 -3.1875 "/>
</g>
<g id="glyph-1-11">
<path d="M -2.8125 -6.15625 C -3.765625 -6.15625 -4.34375 -6.078125 -4.8125 -5.90625 C -5.84375 -5.5 -6.46875 -4.53125 -6.46875 -3.359375 C -6.46875 -1.609375 -5.140625 -0.484375 -3.0625 -0.484375 C -0.984375 -0.484375 0.28125 -1.5625 0.28125 -3.34375 C 0.28125 -4.78125 -0.546875 -5.765625 -1.90625 -6.03125 L -1.90625 -5.015625 C -1.078125 -4.734375 -0.640625 -4.171875 -0.640625 -3.375 C -0.640625 -2.734375 -0.9375 -2.203125 -1.46875 -1.859375 C -1.828125 -1.625 -2.1875 -1.53125 -2.8125 -1.53125 Z M -3.625 -1.546875 C -4.78125 -1.625 -5.546875 -2.34375 -5.546875 -3.34375 C -5.546875 -4.375 -4.75 -5.078125 -3.625 -5.078125 Z M -3.625 -1.546875 "/>
</g>
<g id="glyph-1-12">
<path d="M -6.28125 -0.84375 L 0 -0.84375 L 0 -1.84375 L -3.46875 -1.84375 C -4.75 -1.84375 -5.59375 -2.515625 -5.59375 -3.546875 C -5.59375 -4.34375 -5.109375 -4.84375 -4.359375 -4.84375 L 0 -4.84375 L 0 -5.84375 L -4.75 -5.84375 C -5.796875 -5.84375 -6.46875 -5.0625 -6.46875 -3.859375 C -6.46875 -2.921875 -6.109375 -2.3125 -5.234375 -1.765625 L -6.28125 -1.765625 Z M -6.28125 -0.84375 "/>
</g>
<g id="glyph-1-13">
<path d="M -4.53125 -5.25 C -5.765625 -5.25 -6.46875 -4.421875 -6.46875 -2.96875 C -6.46875 -1.515625 -5.71875 -0.5625 -4.546875 -0.5625 C -3.5625 -0.5625 -3.09375 -1.0625 -2.734375 -2.5625 L -2.515625 -3.484375 C -2.34375 -4.1875 -2.09375 -4.46875 -1.640625 -4.46875 C -1.046875 -4.46875 -0.640625 -3.875 -0.640625 -3 C -0.640625 -2.453125 -0.796875 -2 -1.0625 -1.75 C -1.25 -1.59375 -1.421875 -1.53125 -1.875 -1.46875 L -1.875 -0.40625 C -0.421875 -0.453125 0.28125 -1.265625 0.28125 -2.921875 C 0.28125 -4.5 -0.5 -5.515625 -1.71875 -5.515625 C -2.65625 -5.515625 -3.171875 -4.984375 -3.46875 -3.734375 L -3.703125 -2.765625 C -3.890625 -1.953125 -4.15625 -1.609375 -4.59375 -1.609375 C -5.1875 -1.609375 -5.546875 -2.125 -5.546875 -2.9375 C -5.546875 -3.75 -5.203125 -4.171875 -4.53125 -4.203125 Z M -4.53125 -5.25 "/>
</g>
<g id="glyph-1-14">
<path d="M -8.671875 -3.296875 C -8.671875 -2.515625 -8.3125 -1.78125 -7.734375 -1.34375 C -6.953125 -0.796875 -5.8125 -0.515625 -4.203125 -0.515625 C -1.265625 -0.515625 0.28125 -1.46875 0.28125 -3.296875 C 0.28125 -5.09375 -1.265625 -6.078125 -4.125 -6.078125 C -5.8125 -6.078125 -6.9375 -5.8125 -7.734375 -5.25 C -8.328125 -4.8125 -8.671875 -4.109375 -8.671875 -3.296875 Z M -7.734375 -3.296875 C -7.734375 -4.4375 -6.578125 -5 -4.21875 -5 C -1.75 -5 -0.59375 -4.453125 -0.59375 -3.28125 C -0.59375 -2.15625 -1.796875 -1.59375 -4.1875 -1.59375 C -6.578125 -1.59375 -7.734375 -2.15625 -7.734375 -3.296875 Z M -7.734375 -3.296875 "/>
</g>
<g id="glyph-1-15">
<path d="M -1.046875 -6.078125 L -1.046875 -1.59375 C -1.765625 -1.703125 -2.21875 -2.09375 -2.859375 -3.125 L -3.53125 -4.328125 C -4.1875 -5.515625 -5.078125 -6.125 -6.140625 -6.125 C -6.859375 -6.125 -7.53125 -5.84375 -8 -5.34375 C -8.453125 -4.84375 -8.671875 -4.21875 -8.671875 -3.40625 C -8.671875 -2.328125 -8.296875 -1.53125 -7.546875 -1.0625 C -7.09375 -0.75 -6.546875 -0.625 -5.671875 -0.59375 L -5.671875 -1.65625 C -6.265625 -1.6875 -6.609375 -1.765625 -6.90625 -1.90625 C -7.421875 -2.1875 -7.75 -2.734375 -7.75 -3.375 C -7.75 -4.328125 -7.0625 -5.046875 -6.125 -5.046875 C -5.421875 -5.046875 -4.828125 -4.65625 -4.390625 -3.90625 L -3.75 -2.796875 C -2.71875 -1.015625 -1.90625 -0.5 -0.015625 -0.40625 L -0.015625 -6.078125 Z M -1.046875 -6.078125 "/>
</g>
<g id="glyph-1-16">
<path d="M -2.09375 -3.921875 L 0 -3.921875 L 0 -4.984375 L -2.09375 -4.984375 L -2.09375 -6.234375 L -3.046875 -6.234375 L -3.046875 -4.984375 L -8.671875 -4.984375 L -8.671875 -4.203125 L -3.21875 -0.34375 L -2.09375 -0.34375 Z M -3.046875 -3.921875 L -3.046875 -1.265625 L -6.875 -3.921875 Z M -3.046875 -3.921875 "/>
</g>
<g id="glyph-1-17">
<path d="M -6.421875 -5.96875 C -7.84375 -5.765625 -8.671875 -4.859375 -8.671875 -3.5625 C -8.671875 -2.625 -8.21875 -1.78125 -7.4375 -1.28125 C -6.59375 -0.75 -5.53125 -0.515625 -3.953125 -0.515625 C -2.5 -0.515625 -1.578125 -0.71875 -0.796875 -1.234375 C -0.09375 -1.6875 0.28125 -2.4375 0.28125 -3.375 C 0.28125 -4.984375 -0.9375 -6.15625 -2.625 -6.15625 C -4.21875 -6.15625 -5.359375 -5.078125 -5.359375 -3.546875 C -5.359375 -2.71875 -5.046875 -2.046875 -4.40625 -1.59375 C -6.546875 -1.609375 -7.734375 -2.28125 -7.734375 -3.484375 C -7.734375 -4.234375 -7.265625 -4.75 -6.421875 -4.921875 Z M -4.421875 -3.421875 C -4.421875 -4.4375 -3.703125 -5.078125 -2.546875 -5.078125 C -1.453125 -5.078125 -0.65625 -4.359375 -0.65625 -3.390625 C -0.65625 -2.40625 -1.484375 -1.65625 -2.59375 -1.65625 C -3.671875 -1.65625 -4.421875 -2.375 -4.421875 -3.421875 Z M -4.421875 -3.421875 "/>
</g>
<g id="glyph-1-18">
<path d="M -4.578125 -4.6875 C -5.109375 -5.578125 -5.546875 -5.859375 -6.359375 -5.859375 C -7.734375 -5.859375 -8.671875 -4.8125 -8.671875 -3.296875 C -8.671875 -1.796875 -7.734375 -0.75 -6.375 -0.75 C -5.546875 -0.75 -5.125 -1.015625 -4.578125 -1.890625 C -4.078125 -0.921875 -3.375 -0.4375 -2.40625 -0.4375 C -0.828125 -0.4375 0.28125 -1.609375 0.28125 -3.296875 C 0.28125 -4.984375 -0.828125 -6.15625 -2.40625 -6.15625 C -3.375 -6.15625 -4.078125 -5.671875 -4.578125 -4.6875 Z M -7.734375 -3.296875 C -7.734375 -4.203125 -7.203125 -4.78125 -6.34375 -4.78125 C -5.515625 -4.78125 -4.984375 -4.1875 -4.984375 -3.296875 C -4.984375 -2.40625 -5.515625 -1.828125 -6.359375 -1.828125 C -7.203125 -1.828125 -7.734375 -2.40625 -7.734375 -3.296875 Z M -4.09375 -3.296875 C -4.09375 -4.359375 -3.390625 -5.078125 -2.390625 -5.078125 C -1.34375 -5.078125 -0.65625 -4.375 -0.65625 -3.28125 C -0.65625 -2.25 -1.375 -1.53125 -2.375 -1.53125 C -3.40625 -1.53125 -4.09375 -2.234375 -4.09375 -3.296875 Z M -4.09375 -3.296875 "/>
</g>
<g id="glyph-1-19">
<path d="M -6.1875 -3.109375 L 0 -3.109375 L 0 -4.15625 L -8.671875 -4.15625 L -8.671875 -3.46875 C -7.34375 -3.09375 -7.15625 -2.859375 -6.953125 -1.21875 L -6.1875 -1.21875 Z M -6.1875 -3.109375 "/>
</g>
</g>
<clipPath id="clip-0">
<path clip-rule="nonzero" d="M 59.039062 323 L 545.757812 323 L 545.757812 324 L 59.039062 324 Z M 59.039062 323 "/>
</clipPath>
<clipPath id="clip-1">
<path clip-rule="nonzero" d="M 59.039062 276 L 545.757812 276 L 545.757812 278 L 59.039062 278 Z M 59.039062 276 "/>
</clipPath>
<clipPath id="clip-2">
<path clip-rule="nonzero" d="M 59.039062 230 L 545.757812 230 L 545.757812 232 L 59.039062 232 Z M 59.039062 230 "/>
</clipPath>
<clipPath id="clip-3">
<path clip-rule="nonzero" d="M 59.039062 184 L 545.757812 184 L 545.757812 186 L 59.039062 186 Z M 59.039062 184 "/>
</clipPath>
<clipPath id="clip-4">
<path clip-rule="nonzero" d="M 59.039062 138 L 545.757812 138 L 545.757812 140 L 59.039062 140 Z M 59.039062 138 "/>
</clipPath>
<clipPath id="clip-5">
<path clip-rule="nonzero" d="M 59.039062 92 L 545.757812 92 L 545.757812 94 L 59.039062 94 Z M 59.039062 92 "/>
</clipPath>
<clipPath id="clip-6">
<path clip-rule="nonzero" d="M 76 59.039062 L 78 59.039062 L 78 333.558594 L 76 333.558594 Z M 76 59.039062 "/>
</clipPath>
<clipPath id="clip-7">
<path clip-rule="nonzero" d="M 166 59.039062 L 168 59.039062 L 168 333.558594 L 166 333.558594 Z M 166 59.039062 "/>
</clipPath>
<clipPath id="clip-8">
<path clip-rule="nonzero" d="M 256 59.039062 L 258 59.039062 L 258 333.558594 L 256 333.558594 Z M 256 59.039062 "/>
</clipPath>
<clipPath id="clip-9">
<path clip-rule="nonzero" d="M 347 59.039062 L 348 59.039062 L 348 333.558594 L 347 333.558594 Z M 347 59.039062 "/>
</clipPath>
<clipPath id="clip-10">
<path clip-rule="nonzero" d="M 437 59.039062 L 438 59.039062 L 438 333.558594 L 437 333.558594 Z M 437 59.039062 "/>
</clipPath>
<clipPath id="clip-11">
<path clip-rule="nonzero" d="M 527 59.039062 L 529 59.039062 L 529 333.558594 L 527 333.558594 Z M 527 59.039062 "/>
</clipPath>
<clipPath id="clip-12">
<path clip-rule="nonzero" d="M 208 59.039062 L 210 59.039062 L 210 333.558594 L 208 333.558594 Z M 208 59.039062 "/>
</clipPath>
<clipPath id="clip-13">
<path clip-rule="nonzero" d="M 242 59.039062 L 244 59.039062 L 244 333.558594 L 242 333.558594 Z M 242 59.039062 "/>
</clipPath>
<clipPath id="clip-14">
<path clip-rule="nonzero" d="M 229 59.039062 L 231 59.039062 L 231 333.558594 L 229 333.558594 Z M 229 59.039062 "/>
</clipPath>
</defs>
<rect x="-57.6" y="-40.7" width="691.2" height="488.4" fill="rgb(100%, 100%, 100%)" fill-opacity="1"/>
<g fill="rgb(0%, 0%, 0%)" fill-opacity="1">
<use xlink:href="#glyph-0-0" x="229.398438" y="388.029297"/>
<use xlink:href="#glyph-0-1" x="232.398438" y="388.029297"/>
<use xlink:href="#glyph-0-2" x="239.398438" y="388.029297"/>
<use xlink:href="#glyph-0-3" x="246.398438" y="388.029297"/>
<use xlink:href="#glyph-0-4" x="253.398438" y="388.029297"/>
<use xlink:href="#glyph-0-5" x="257.398438" y="388.029297"/>
<use xlink:href="#glyph-0-6" x="261.398438" y="388.029297"/>
<use xlink:href="#glyph-0-2" x="268.398438" y="388.029297"/>
<use xlink:href="#glyph-0-7" x="275.398438" y="388.029297"/>
<use xlink:href="#glyph-0-5" x="278.398438" y="388.029297"/>
<use xlink:href="#glyph-0-8" x="282.398438" y="388.029297"/>
<use xlink:href="#glyph-0-0" x="289.398438" y="388.029297"/>
<use xlink:href="#glyph-0-9" x="292.398438" y="388.029297"/>
<use xlink:href="#glyph-0-10" x="299.398438" y="388.029297"/>
<use xlink:href="#glyph-0-11" x="302.398438" y="388.029297"/>
<use xlink:href="#glyph-0-12" x="305.398438" y="388.029297"/>
<use xlink:href="#glyph-0-8" x="311.398438" y="388.029297"/>
<use xlink:href="#glyph-0-7" x="318.398438" y="388.029297"/>
<use xlink:href="#glyph-0-13" x="321.398438" y="388.029297"/>
<use xlink:href="#glyph-0-5" x="324.398438" y="388.029297"/>
<use xlink:href="#glyph-0-8" x="328.398438" y="388.029297"/>
<use xlink:href="#glyph-0-14" x="335.398438" y="388.029297"/>
<use xlink:href="#glyph-0-6" x="342.398438" y="388.029297"/>
<use xlink:href="#glyph-0-8" x="349.398438" y="388.029297"/>
<use xlink:href="#glyph-0-2" x="356.398438" y="388.029297"/>
<use xlink:href="#glyph-0-15" x="363.398438" y="388.029297"/>
<use xlink:href="#glyph-0-16" x="369.398438" y="388.029297"/>
</g>
<g fill="rgb(0%, 0%, 0%)" fill-opacity="1">
<use xlink:href="#glyph-1-0" x="12.708984" y="246.800781"/>
<use xlink:href="#glyph-1-1" x="12.708984" y="239.800781"/>
<use xlink:href="#glyph-1-2" x="12.708984" y="235.800781"/>
<use xlink:href="#glyph-1-3" x="12.708984" y="228.800781"/>
<use xlink:href="#glyph-1-4" x="12.708984" y="221.800781"/>
<use xlink:href="#glyph-1-3" x="12.708984" y="214.800781"/>
<use xlink:href="#glyph-1-5" x="12.708984" y="207.800781"/>
<use xlink:href="#glyph-1-6" x="12.708984" y="204.800781"/>
<use xlink:href="#glyph-1-5" x="12.708984" y="201.800781"/>
<use xlink:href="#glyph-1-7" x="12.708984" y="198.800781"/>
<use xlink:href="#glyph-1-8" x="12.708984" y="194.800781"/>
<use xlink:href="#glyph-1-9" x="12.708984" y="188.800781"/>
<use xlink:href="#glyph-1-10" x="12.708984" y="185.800781"/>
<use xlink:href="#glyph-1-11" x="12.708984" y="178.800781"/>
<use xlink:href="#glyph-1-12" x="12.708984" y="171.800781"/>
<use xlink:href="#glyph-1-13" x="12.708984" y="164.800781"/>
<use xlink:href="#glyph-1-5" x="12.708984" y="158.800781"/>
<use xlink:href="#glyph-1-7" x="12.708984" y="155.800781"/>
<use xlink:href="#glyph-1-8" x="12.708984" y="151.800781"/>
</g>
<path fill-rule="nonzero" fill="rgb(80%, 73.333333%, 26.666667%)" fill-opacity="0.12549" d="M 147.886719 322.769531 L 152.515625 323.394531 L 161.773438 320.902344 L 166.402344 317.785156 L 171.03125 305.324219 L 175.660156 295.359375 L 180.289062 274.796875 L 184.914062 223.710938 L 189.542969 185.085938 L 194.171875 165.148438 L 198.800781 105.339844 L 203.429688 69.832031 L 208.058594 69.207031 L 212.6875 84.78125 L 217.316406 106.585938 L 221.945312 143.34375 L 226.574219 195.675781 L 231.199219 226.828125 L 235.828125 268.566406 L 240.457031 274.796875 L 245.085938 294.113281 L 249.714844 308.441406 L 254.34375 320.902344 L 263.601562 320.902344 L 268.230469 323.394531 L 277.484375 323.394531 L 282.113281 322.148438 L 282.113281 323.394531 L 147.886719 323.394531 Z M 147.886719 322.769531 "/>
<path fill-rule="nonzero" fill="rgb(66.666667%, 20%, 46.666667%)" fill-opacity="0.12549" d="M 193.246094 319.644531 L 197.09375 318.898438 L 200.941406 311.40625 L 204.789062 303.164062 L 208.640625 288.925781 L 212.488281 276.9375 L 216.335938 252.210938 L 220.183594 227.488281 L 224.035156 187.777344 L 227.882812 157.054688 L 231.730469 120.34375 L 235.578125 100.863281 L 239.429688 76.136719 L 243.277344 97.117188 L 247.125 115.097656 L 250.972656 107.605469 L 254.820312 125.585938 L 258.671875 170.542969 L 262.519531 192.273438 L 266.367188 225.988281 L 270.214844 252.210938 L 274.066406 278.4375 L 277.914062 288.925781 L 281.761719 304.660156 L 285.609375 307.65625 L 289.457031 314.402344 L 293.308594 318.148438 L 297.15625 320.394531 L 301.003906 322.644531 L 304.851562 321.894531 L 304.851562 323.394531 L 193.246094 323.394531 Z M 193.246094 319.644531 "/>
<path fill-rule="nonzero" fill="rgb(40%, 80%, 93.333333%)" fill-opacity="0.12549" d="M 176.257812 321.125 L 180.074219 320.371094 L 183.890625 315.085938 L 187.710938 318.859375 L 191.527344 306.777344 L 195.34375 287.894531 L 199.164062 281.851562 L 202.980469 257.679688 L 206.800781 224.449219 L 210.617188 187.4375 L 214.433594 145.898438 L 218.253906 112.664062 L 222.070312 104.355469 L 225.886719 81.695312 L 229.707031 86.984375 L 233.523438 71.878906 L 237.339844 92.269531 L 241.160156 162.511719 L 244.976562 173.085938 L 248.792969 192.726562 L 252.613281 225.203125 L 256.429688 256.925781 L 260.246094 275.808594 L 264.066406 287.894531 L 267.882812 299.222656 L 271.703125 312.0625 L 275.519531 317.351562 L 279.335938 318.859375 L 283.15625 321.125 L 286.972656 322.636719 L 286.972656 323.394531 L 176.257812 323.394531 Z M 176.257812 321.125 "/>
<path fill="none" stroke-width="1.5" stroke-linecap="round" stroke-linejoin="round" stroke="rgb(80%, 73.333333%, 26.666667%)" stroke-opacity="1" stroke-miterlimit="10" d="M 147.886719 322.769531 L 152.515625 323.394531 L 161.773438 320.902344 L 166.402344 317.785156 L 171.03125 305.324219 L 175.660156 295.359375 L 180.289062 274.796875 L 184.914062 223.710938 L 189.542969 185.085938 L 194.171875 165.148438 L 198.800781 105.339844 L 203.429688 69.832031 L 208.058594 69.207031 L 212.6875 84.78125 L 217.316406 106.585938 L 221.945312 143.34375 L 226.574219 195.675781 L 231.199219 226.828125 L 235.828125 268.566406 L 240.457031 274.796875 L 245.085938 294.113281 L 249.714844 308.441406 L 254.34375 320.902344 L 263.601562 320.902344 L 268.230469 323.394531 L 277.484375 323.394531 L 282.113281 322.148438 "/>
<path fill="none" stroke-width="1.5" stroke-linecap="round" stroke-linejoin="round" stroke="rgb(66.666667%, 20%, 46.666667%)" stroke-opacity="1" stroke-dasharray="6 6" stroke-miterlimit="10" d="M 193.246094 319.644531 L 197.09375 318.898438 L 200.941406 311.40625 L 204.789062 303.164062 L 208.640625 288.925781 L 212.488281 276.9375 L 216.335938 252.210938 L 220.183594 227.488281 L 224.035156 187.777344 L 227.882812 157.054688 L 231.730469 120.34375 L 235.578125 100.863281 L 239.429688 76.136719 L 243.277344 97.117188 L 247.125 115.097656 L 250.972656 107.605469 L 254.820312 125.585938 L 258.671875 170.542969 L 262.519531 192.273438 L 266.367188 225.988281 L 270.214844 252.210938 L 274.066406 278.4375 L 277.914062 288.925781 L 281.761719 304.660156 L 285.609375 307.65625 L 289.457031 314.402344 L 293.308594 318.148438 L 297.15625 320.394531 L 301.003906 322.644531 L 304.851562 321.894531 "/>
<path fill="none" stroke-width="1.5" stroke-linecap="round" stroke-linejoin="round" stroke="rgb(40%, 80%, 93.333333%)" stroke-opacity="1" stroke-dasharray="1.5 4.5 6 4.5" stroke-miterlimit="10" d="M 176.257812 321.125 L 180.074219 320.371094 L 183.890625 315.085938 L 187.710938 318.859375 L 191.527344 306.777344 L 195.34375 287.894531 L 199.164062 281.851562 L 202.980469 257.679688 L 206.800781 224.449219 L 210.617188 187.4375 L 214.433594 145.898438 L 218.253906 112.664062 L 222.070312 104.355469 L 225.886719 81.695312 L 229.707031 86.984375 L 233.523438 71.878906 L 237.339844 92.269531 L 241.160156 162.511719 L 244.976562 173.085938 L 248.792969 192.726562 L 252.613281 225.203125 L 256.429688 256.925781 L 260.246094 275.808594 L 264.066406 287.894531 L 267.882812 299.222656 L 271.703125 312.0625 L 275.519531 317.351562 L 279.335938 318.859375 L 283.15625 321.125 L 286.972656 322.636719 "/>
<g fill="rgb(0%, 0%, 0%)" fill-opacity="1">
<use xlink:href="#glyph-0-17" x="68.566406" y="359.228516"/>
<use xlink:href="#glyph-0-18" x="75.566406" y="359.228516"/>
<use xlink:href="#glyph-0-17" x="78.566406" y="359.228516"/>
</g>
<g fill="rgb(0%, 0%, 0%)" fill-opacity="1">
<use xlink:href="#glyph-0-17" x="158.699219" y="359.228516"/>
<use xlink:href="#glyph-0-18" x="165.699219" y="359.228516"/>
<use xlink:href="#glyph-0-19" x="168.699219" y="359.228516"/>
</g>
<g fill="rgb(0%, 0%, 0%)" fill-opacity="1">
<use xlink:href="#glyph-0-17" x="248.832031" y="359.228516"/>
<use xlink:href="#glyph-0-18" x="255.832031" y="359.228516"/>
<use xlink:href="#glyph-0-20" x="258.832031" y="359.228516"/>
</g>
<g fill="rgb(0%, 0%, 0%)" fill-opacity="1">
<use xlink:href="#glyph-0-17" x="338.964844" y="359.228516"/>
<use xlink:href="#glyph-0-18" x="345.964844" y="359.228516"/>
<use xlink:href="#glyph-0-21" x="348.964844" y="359.228516"/>
</g>
<g fill="rgb(0%, 0%, 0%)" fill-opacity="1">
<use xlink:href="#glyph-0-17" x="429.101562" y="359.228516"/>
<use xlink:href="#glyph-0-18" x="436.101562" y="359.228516"/>
<use xlink:href="#glyph-0-22" x="439.101562" y="359.228516"/>
</g>
<g fill="rgb(0%, 0%, 0%)" fill-opacity="1">
<use xlink:href="#glyph-0-23" x="519.234375" y="359.228516"/>
<use xlink:href="#glyph-0-18" x="526.234375" y="359.228516"/>
<use xlink:href="#glyph-0-17" x="529.234375" y="359.228516"/>
</g>
<g fill="rgb(0%, 0%, 0%)" fill-opacity="1">
<use xlink:href="#glyph-1-14" x="41.509766" y="326.894531"/>
</g>
<g fill="rgb(0%, 0%, 0%)" fill-opacity="1">
<use xlink:href="#glyph-1-15" x="41.509766" y="280.824219"/>
</g>
<g fill="rgb(0%, 0%, 0%)" fill-opacity="1">
<use xlink:href="#glyph-1-16" x="41.509766" y="234.753906"/>
</g>
<g fill="rgb(0%, 0%, 0%)" fill-opacity="1">
<use xlink:href="#glyph-1-17" x="41.509766" y="188.6875"/>
</g>
<g fill="rgb(0%, 0%, 0%)" fill-opacity="1">
<use xlink:href="#glyph-1-18" x="41.509766" y="142.617188"/>
</g>
<g fill="rgb(0%, 0%, 0%)" fill-opacity="1">
<use xlink:href="#glyph-1-19" x="41.509766" y="100.046875"/>
<use xlink:href="#glyph-1-14" x="41.509766" y="93.046875"/>
</g>
<g clip-path="url(#clip-0)">
<path fill="none" stroke-width="0.75" stroke-linecap="round" stroke-linejoin="round" stroke="rgb(0%, 0%, 0%)" stroke-opacity="0.133333" stroke-miterlimit="10" d="M 59.039062 323.394531 L 545.761719 323.394531 "/>
</g>
<g clip-path="url(#clip-1)">
<path fill="none" stroke-width="0.75" stroke-linecap="round" stroke-linejoin="round" stroke="rgb(0%, 0%, 0%)" stroke-opacity="0.133333" stroke-miterlimit="10" d="M 59.039062 277.324219 L 545.761719 277.324219 "/>
</g>
<g clip-path="url(#clip-2)">
<path fill="none" stroke-width="0.75" stroke-linecap="round" stroke-linejoin="round" stroke="rgb(0%, 0%, 0%)" stroke-opacity="0.133333" stroke-miterlimit="10" d="M 59.039062 231.253906 L 545.761719 231.253906 "/>
</g>
<g clip-path="url(#clip-3)">
<path fill="none" stroke-width="0.75" stroke-linecap="round" stroke-linejoin="round" stroke="rgb(0%, 0%, 0%)" stroke-opacity="0.133333" stroke-miterlimit="10" d="M 59.039062 185.1875 L 545.761719 185.1875 "/>
</g>
<g clip-path="url(#clip-4)">
<path fill="none" stroke-width="0.75" stroke-linecap="round" stroke-linejoin="round" stroke="rgb(0%, 0%, 0%)" stroke-opacity="0.133333" stroke-miterlimit="10" d="M 59.039062 139.117188 L 545.761719 139.117188 "/>
</g>
<g clip-path="url(#clip-5)">
<path fill="none" stroke-width="0.75" stroke-linecap="round" stroke-linejoin="round" stroke="rgb(0%, 0%, 0%)" stroke-opacity="0.133333" stroke-miterlimit="10" d="M 59.039062 93.046875 L 545.761719 93.046875 "/>
</g>
<g clip-path="url(#clip-6)">
<path fill="none" stroke-width="0.75" stroke-linecap="round" stroke-linejoin="round" stroke="rgb(0%, 0%, 0%)" stroke-opacity="0.133333" stroke-miterlimit="10" d="M 77.066406 333.558594 L 77.066406 59.039062 "/>
</g>
<g clip-path="url(#clip-7)">
<path fill="none" stroke-width="0.75" stroke-linecap="round" stroke-linejoin="round" stroke="rgb(0%, 0%, 0%)" stroke-opacity="0.133333" stroke-miterlimit="10" d="M 167.199219 333.558594 L 167.199219 59.039062 "/>
</g>
<g clip-path="url(#clip-8)">
<path fill="none" stroke-width="0.75" stroke-linecap="round" stroke-linejoin="round" stroke="rgb(0%, 0%, 0%)" stroke-opacity="0.133333" stroke-miterlimit="10" d="M 257.332031 333.558594 L 257.332031 59.039062 "/>
</g>
<g clip-path="url(#clip-9)">
<path fill="none" stroke-width="0.75" stroke-linecap="round" stroke-linejoin="round" stroke="rgb(0%, 0%, 0%)" stroke-opacity="0.133333" stroke-miterlimit="10" d="M 347.464844 333.558594 L 347.464844 59.039062 "/>
</g>
<g clip-path="url(#clip-10)">
<path fill="none" stroke-width="0.75" stroke-linecap="round" stroke-linejoin="round" stroke="rgb(0%, 0%, 0%)" stroke-opacity="0.133333" stroke-miterlimit="10" d="M 437.601562 333.558594 L 437.601562 59.039062 "/>
</g>
<g clip-path="url(#clip-11)">
<path fill="none" stroke-width="0.75" stroke-linecap="round" stroke-linejoin="round" stroke="rgb(0%, 0%, 0%)" stroke-opacity="0.133333" stroke-miterlimit="10" d="M 527.734375 333.558594 L 527.734375 59.039062 "/>
</g>
<g clip-path="url(#clip-12)">
<path fill="none" stroke-width="1.125" stroke-linecap="round" stroke-linejoin="round" stroke="rgb(80%, 73.333333%, 26.666667%)" stroke-opacity="0.74902" stroke-miterlimit="10" d="M 208.90625 333.558594 L 208.90625 59.039062 "/>
</g>
<g clip-path="url(#clip-13)">
<path fill="none" stroke-width="1.125" stroke-linecap="round" stroke-linejoin="round" stroke="rgb(66.666667%, 20%, 46.666667%)" stroke-opacity="0.74902" stroke-dasharray="4.5 4.5" stroke-miterlimit="10" d="M 243.316406 333.558594 L 243.316406 59.039062 "/>
</g>
<g clip-path="url(#clip-14)">
<path fill="none" stroke-width="1.125" stroke-linecap="round" stroke-linejoin="round" stroke="rgb(40%, 80%, 93.333333%)" stroke-opacity="0.74902" stroke-dasharray="1.125 3.375 4.5 3.375" stroke-miterlimit="10" d="M 229.644531 333.558594 L 229.644531 59.039062 "/>
</g>
<path fill="none" stroke-width="1.5" stroke-linecap="round" stroke-linejoin="round" stroke="rgb(80%, 73.333333%, 26.666667%)" stroke-opacity="1" stroke-miterlimit="10" d="M 307.960938 73.441406 L 329.558594 73.441406 "/>
<path fill="none" stroke-width="1.5" stroke-linecap="round" stroke-linejoin="round" stroke="rgb(66.666667%, 20%, 46.666667%)" stroke-opacity="1" stroke-dasharray="6 6" stroke-miterlimit="10" d="M 307.960938 87.839844 L 329.558594 87.839844 "/>
<path fill="none" stroke-width="1.5" stroke-linecap="round" stroke-linejoin="round" stroke="rgb(40%, 80%, 93.333333%)" stroke-opacity="1" stroke-dasharray="1.5 4.5 6 4.5" stroke-miterlimit="10" d="M 307.960938 102.238281 L 329.558594 102.238281 "/>
<g fill="rgb(0%, 0%, 0%)" fill-opacity="1">
<use xlink:href="#glyph-0-11" x="340.359375" y="77.689453"/>
<use xlink:href="#glyph-0-24" x="343.359375" y="77.689453"/>
<use xlink:href="#glyph-0-0" x="349.359375" y="77.689453"/>
<use xlink:href="#glyph-0-9" x="352.359375" y="77.689453"/>
<use xlink:href="#glyph-0-2" x="359.359375" y="77.689453"/>
<use xlink:href="#glyph-0-25" x="366.359375" y="77.689453"/>
<use xlink:href="#glyph-0-7" x="373.359375" y="77.689453"/>
<use xlink:href="#glyph-0-26" x="376.359375" y="77.689453"/>
<use xlink:href="#glyph-0-7" x="383.359375" y="77.689453"/>
<use xlink:href="#glyph-0-27" x="386.359375" y="77.689453"/>
<use xlink:href="#glyph-0-11" x="394.359375" y="77.689453"/>
<use xlink:href="#glyph-0-24" x="397.359375" y="77.689453"/>
<use xlink:href="#glyph-0-15" x="403.359375" y="77.689453"/>
<use xlink:href="#glyph-0-1" x="409.359375" y="77.689453"/>
<use xlink:href="#glyph-0-8" x="416.359375" y="77.689453"/>
<use xlink:href="#glyph-0-7" x="423.359375" y="77.689453"/>
<use xlink:href="#glyph-0-28" x="426.359375" y="77.689453"/>
<use xlink:href="#glyph-0-7" x="429.359375" y="77.689453"/>
<use xlink:href="#glyph-0-24" x="432.359375" y="77.689453"/>
<use xlink:href="#glyph-0-29" x="438.359375" y="77.689453"/>
<use xlink:href="#glyph-0-8" x="445.359375" y="77.689453"/>
<use xlink:href="#glyph-0-15" x="452.359375" y="77.689453"/>
<use xlink:href="#glyph-0-11" x="458.359375" y="77.689453"/>
<use xlink:href="#glyph-0-8" x="461.359375" y="77.689453"/>
<use xlink:href="#glyph-0-24" x="468.359375" y="77.689453"/>
<use xlink:href="#glyph-0-7" x="474.359375" y="77.689453"/>
<use xlink:href="#glyph-0-26" x="477.359375" y="77.689453"/>
<use xlink:href="#glyph-0-7" x="484.359375" y="77.689453"/>
<use xlink:href="#glyph-0-30" x="487.359375" y="77.689453"/>
<use xlink:href="#glyph-0-25" x="495.359375" y="77.689453"/>
<use xlink:href="#glyph-0-8" x="502.359375" y="77.689453"/>
<use xlink:href="#glyph-0-0" x="509.359375" y="77.689453"/>
<use xlink:href="#glyph-0-11" x="512.359375" y="77.689453"/>
<use xlink:href="#glyph-0-8" x="515.359375" y="77.689453"/>
</g>
<g fill="rgb(0%, 0%, 0%)" fill-opacity="1">
<use xlink:href="#glyph-0-11" x="340.359375" y="92.087891"/>
<use xlink:href="#glyph-0-24" x="343.359375" y="92.087891"/>
<use xlink:href="#glyph-0-0" x="349.359375" y="92.087891"/>
<use xlink:href="#glyph-0-9" x="352.359375" y="92.087891"/>
<use xlink:href="#glyph-0-2" x="359.359375" y="92.087891"/>
<use xlink:href="#glyph-0-25" x="366.359375" y="92.087891"/>
<use xlink:href="#glyph-0-7" x="373.359375" y="92.087891"/>
<use xlink:href="#glyph-0-26" x="376.359375" y="92.087891"/>
<use xlink:href="#glyph-0-7" x="383.359375" y="92.087891"/>
<use xlink:href="#glyph-0-31" x="386.359375" y="92.087891"/>
<use xlink:href="#glyph-0-5" x="395.359375" y="92.087891"/>
<use xlink:href="#glyph-0-8" x="399.359375" y="92.087891"/>
<use xlink:href="#glyph-0-9" x="406.359375" y="92.087891"/>
<use xlink:href="#glyph-0-32" x="413.359375" y="92.087891"/>
<use xlink:href="#glyph-0-7" x="423.359375" y="92.087891"/>
<use xlink:href="#glyph-0-28" x="426.359375" y="92.087891"/>
<use xlink:href="#glyph-0-7" x="429.359375" y="92.087891"/>
<use xlink:href="#glyph-0-24" x="432.359375" y="92.087891"/>
<use xlink:href="#glyph-0-29" x="438.359375" y="92.087891"/>
<use xlink:href="#glyph-0-8" x="445.359375" y="92.087891"/>
<use xlink:href="#glyph-0-15" x="452.359375" y="92.087891"/>
<use xlink:href="#glyph-0-11" x="458.359375" y="92.087891"/>
<use xlink:href="#glyph-0-8" x="461.359375" y="92.087891"/>
<use xlink:href="#glyph-0-24" x="468.359375" y="92.087891"/>
<use xlink:href="#glyph-0-7" x="474.359375" y="92.087891"/>
<use xlink:href="#glyph-0-26" x="477.359375" y="92.087891"/>
<use xlink:href="#glyph-0-7" x="484.359375" y="92.087891"/>
<use xlink:href="#glyph-0-30" x="487.359375" y="92.087891"/>
<use xlink:href="#glyph-0-25" x="495.359375" y="92.087891"/>
<use xlink:href="#glyph-0-8" x="502.359375" y="92.087891"/>
<use xlink:href="#glyph-0-0" x="509.359375" y="92.087891"/>
<use xlink:href="#glyph-0-11" x="512.359375" y="92.087891"/>
<use xlink:href="#glyph-0-8" x="515.359375" y="92.087891"/>
</g>
<g fill="rgb(0%, 0%, 0%)" fill-opacity="1">
<use xlink:href="#glyph-0-11" x="340.359375" y="106.486328"/>
<use xlink:href="#glyph-0-24" x="343.359375" y="106.486328"/>
<use xlink:href="#glyph-0-0" x="349.359375" y="106.486328"/>
<use xlink:href="#glyph-0-9" x="352.359375" y="106.486328"/>
<use xlink:href="#glyph-0-2" x="359.359375" y="106.486328"/>
<use xlink:href="#glyph-0-25" x="366.359375" y="106.486328"/>
<use xlink:href="#glyph-0-7" x="373.359375" y="106.486328"/>
<use xlink:href="#glyph-0-26" x="376.359375" y="106.486328"/>
<use xlink:href="#glyph-0-7" x="383.359375" y="106.486328"/>
<use xlink:href="#glyph-0-33" x="386.359375" y="106.486328"/>
<use xlink:href="#glyph-0-1" x="392.359375" y="106.486328"/>
<use xlink:href="#glyph-0-5" x="399.359375" y="106.486328"/>
<use xlink:href="#glyph-0-3" x="403.359375" y="106.486328"/>
<use xlink:href="#glyph-0-8" x="410.359375" y="106.486328"/>
<use xlink:href="#glyph-0-5" x="417.359375" y="106.486328"/>
<use xlink:href="#glyph-0-24" x="421.359375" y="106.486328"/>
<use xlink:href="#glyph-0-8" x="427.359375" y="106.486328"/>
<use xlink:href="#glyph-0-2" x="434.359375" y="106.486328"/>
<use xlink:href="#glyph-0-7" x="441.359375" y="106.486328"/>
<use xlink:href="#glyph-0-28" x="444.359375" y="106.486328"/>
<use xlink:href="#glyph-0-7" x="447.359375" y="106.486328"/>
<use xlink:href="#glyph-0-24" x="450.359375" y="106.486328"/>
<use xlink:href="#glyph-0-29" x="456.359375" y="106.486328"/>
<use xlink:href="#glyph-0-8" x="463.359375" y="106.486328"/>
<use xlink:href="#glyph-0-15" x="470.359375" y="106.486328"/>
<use xlink:href="#glyph-0-11" x="476.359375" y="106.486328"/>
<use xlink:href="#glyph-0-8" x="479.359375" y="106.486328"/>
<use xlink:href="#glyph-0-24" x="486.359375" y="106.486328"/>
<use xlink:href="#glyph-0-7" x="492.359375" y="106.486328"/>
<use xlink:href="#glyph-0-26" x="495.359375" y="106.486328"/>
<use xlink:href="#glyph-0-7" x="502.359375" y="106.486328"/>
<use xlink:href="#glyph-0-30" x="505.359375" y="106.486328"/>
<use xlink:href="#glyph-0-25" x="513.359375" y="106.486328"/>
<use xlink:href="#glyph-0-8" x="520.359375" y="106.486328"/>
<use xlink:href="#glyph-0-0" x="527.359375" y="106.486328"/>
<use xlink:href="#glyph-0-11" x="530.359375" y="106.486328"/>
<use xlink:href="#glyph-0-8" x="533.359375" y="106.486328"/>
</g>
</svg>
